<svg width="400px" height="400px" viewBox="0 0 112 112" preserveAspectRatio="xMidYMid meet" fill="none" role="presentation"
    xmlns="http://www.w3.org/2000/svg" class="iconpark-icon">
    <g>
        <g opacity=".9">
            <mask fill="#fff" id="27f88__a">
                <path d="M23.113 51.253C23.274 33.228 37.937 18.667 56 18.667c18.063 0 32.725 14.561 32.888 32.586h2.164c11.569 0 20.948 9.38 20.948 20.949 0 11.57-9.379 20.948-20.948 20.948H20.948C9.378 93.15 0 83.771 0 72.202c0-11.57 9.379-20.949 20.948-20.949h2.165Z" clip-rule="evenodd" fill-rule="evenodd"></path>
            </mask>
            <path data-follow-fill="#ffffff66" mask="url(#27f88__a)" d="M23.113 51.253v.889h.88l.008-.88-.889-.009Zm65.775 0-.89.008.009.881h.88v-.889Zm-65.776-.889h-.54v1.778h.54v-1.778Zm-1.622 0h-.542v1.778h.541v-1.778Zm-.542 0c-.319 0-.636.007-.952.02l.076 1.777c.29-.013.583-.019.876-.019v-1.778Zm-2.85.185c-.635.083-1.261.193-1.877.328l.383 1.736a20.32 20.32 0 0 1 1.723-.301l-.23-1.763Zm-3.718.82c-.609.192-1.206.41-1.79.653l.68 1.642a19.895 19.895 0 0 1 1.644-.599l-.534-1.695Zm-3.518 1.46c-.564.294-1.114.612-1.649.953l.957 1.499c.49-.314.996-.606 1.515-.877l-.823-1.576Zm-3.208 2.047c-.504.388-.99.796-1.459 1.225l1.202 1.31c.43-.394.877-.77 1.34-1.125l-1.083-1.41Zm-2.806 2.572c-.429.468-.838.955-1.225 1.459l1.41 1.083c.356-.463.731-.91 1.126-1.34l-1.31-1.202ZM2.53 60.466a22.09 22.09 0 0 0-.954 1.65l1.576.822c.27-.519.563-1.024.877-1.515l-1.499-.957ZM.77 63.842c-.243.585-.46 1.182-.653 1.791l1.696.534c.176-.559.376-1.107.599-1.644l-1.643-.68Zm-1.145 3.632a21.768 21.768 0 0 0-.328 1.876l1.762.23a19.99 19.99 0 0 1 .302-1.723l-1.736-.383Zm-.492 3.775c-.014.316-.02.633-.02.953H.888c0-.294.006-.586.019-.877l-1.776-.076Zm-.02.953c0 .319.006.636.02.952l1.776-.076a19.59 19.59 0 0 1-.02-.876H-.888Zm.184 2.85c.082.635.192 1.261.328 1.877l1.736-.383a19.99 19.99 0 0 1-.302-1.723l-1.762.23Zm.82 3.718c.192.609.41 1.206.652 1.79l1.643-.68a19.905 19.905 0 0 1-.599-1.644l-1.696.534Zm1.459 3.518c.295.564.613 1.114.954 1.649l1.499-.957a19.75 19.75 0 0 1-.877-1.515l-1.576.823Zm2.048 3.208c.387.504.796.991 1.225 1.459l1.31-1.202c-.394-.43-.77-.877-1.125-1.34l-1.41 1.083Zm2.572 2.806c.468.429.955.837 1.459 1.225l1.083-1.41c-.463-.356-.91-.731-1.34-1.126l-1.202 1.31Zm3.018 2.319c.535.34 1.085.66 1.65.954l.822-1.576a20.057 20.057 0 0 1-1.515-.877l-.957 1.499Zm3.376 1.76c.585.243 1.182.46 1.791.653l.534-1.696a19.895 19.895 0 0 1-1.644-.599l-.68 1.642Zm3.632 1.145a21.8 21.8 0 0 0 1.876.328l.23-1.763a19.978 19.978 0 0 1-1.723-.301l-.383 1.736Zm3.775.493c.316.013.633.02.953.02V92.26c-.294 0-.587-.006-.877-.019l-.076 1.776Zm.953.02h.876V92.26h-.877v1.778Zm2.628 0h1.753V92.26h-1.753v1.778Zm3.505 0h1.753V92.26h-1.753v1.778Zm3.506 0h1.752V92.26h-1.752v1.778Zm3.505 0h1.752V92.26h-1.752v1.778Zm3.505 0h1.752V92.26h-1.752v1.778Zm3.505 0h1.753V92.26h-1.753v1.778Zm3.505 0h1.753V92.26h-1.753v1.778Zm3.505 0h1.753V92.26h-1.753v1.778Zm3.506 0h1.752V92.26H51.62v1.778Zm3.505 0h1.752V92.26h-1.752v1.778Zm3.505 0h1.752V92.26H58.63v1.778Zm3.505 0h1.753V92.26h-1.753v1.778Zm3.505 0h1.753V92.26H65.64v1.778Zm3.505 0h1.753V92.26h-1.753v1.778Zm3.505 0h1.753V92.26H72.65v1.778Zm3.506 0h1.752V92.26h-1.752v1.778Zm3.505 0h1.752V92.26H79.66v1.778Zm3.505 0h1.752V92.26h-1.752v1.778Zm3.505 0h1.753V92.26H86.67v1.778Zm3.505 0h.877V92.26h-.877v1.778Zm.877 0c.319 0 .636-.007.952-.02l-.076-1.777c-.29.013-.583.02-.876.02v1.777Zm2.85-.185a21.444 21.444 0 0 0 1.877-.328l-.383-1.736a20.32 20.32 0 0 1-1.723.301l.23 1.763Zm3.718-.82c.609-.192 1.206-.41 1.79-.653l-.68-1.642c-.537.223-1.085.423-1.644.599l.534 1.696Zm3.518-1.459a22.1 22.1 0 0 0 1.649-.954l-.957-1.499c-.491.314-.996.606-1.515.877l.823 1.576Zm3.208-2.048c.504-.388.991-.796 1.459-1.225l-1.202-1.31c-.43.394-.877.77-1.34 1.125l1.083 1.41Zm2.806-2.572c.429-.468.838-.955 1.225-1.459l-1.41-1.083c-.356.463-.731.91-1.126 1.34l1.311 1.202Zm2.319-3.018a22.09 22.09 0 0 0 .954-1.65l-1.576-.822a19.976 19.976 0 0 1-.877 1.515l1.499.957Zm1.761-3.376c.242-.585.46-1.182.652-1.791l-1.696-.534a19.717 19.717 0 0 1-.599 1.644l1.643.68Zm1.144-3.632c.136-.616.246-1.242.328-1.876l-1.762-.23a20.331 20.331 0 0 1-.302 1.723l1.736.383Zm.492-3.775c.014-.316.021-.633.021-.952h-1.778c0 .293-.006.585-.019.876l1.776.076Zm.021-.952c0-.32-.007-.637-.021-.953l-1.776.076c.013.29.019.583.019.877h1.778Zm-.185-2.852a21.494 21.494 0 0 0-.328-1.876l-1.736.383c.124.566.226 1.14.302 1.724l1.762-.23Zm-.82-3.717a21.896 21.896 0 0 0-.652-1.79l-1.643.68c.223.537.423 1.085.599 1.644l1.696-.534Zm-1.459-3.517a21.974 21.974 0 0 0-.954-1.65l-1.499.957c.314.49.606.996.877 1.515l1.576-.822Zm-2.048-3.21a22.12 22.12 0 0 0-1.225-1.458l-1.311 1.202c.395.43.77.877 1.126 1.34l1.41-1.083Zm-2.572-2.805a21.974 21.974 0 0 0-1.459-1.225l-1.083 1.41c.463.356.91.731 1.34 1.126l1.202-1.31Zm-3.018-2.319a22.1 22.1 0 0 0-1.649-.954l-.823 1.576c.519.27 1.024.563 1.515.877l.957-1.499Zm-3.376-1.76a21.688 21.688 0 0 0-1.791-.652l-.534 1.695c.559.176 1.107.376 1.644.599l.68-1.642Zm-3.632-1.145a21.794 21.794 0 0 0-1.876-.328l-.23 1.763c.582.076 1.157.177 1.723.302l.383-1.736Zm-3.775-.492a22.32 22.32 0 0 0-.952-.02v1.777c.293 0 .585.006.876.019l.076-1.776Zm-.952-.02h-.542v1.777h.542v-1.778Zm-1.624 0h-.54v1.777h.54v-1.778Zm.348.88c-.002-.316-.01-.63-.021-.944l-1.777.065c.011.297.018.596.02.895l1.778-.016Zm-.142-2.823a33.786 33.786 0 0 0-.224-1.87l-1.759.262c.087.585.158 1.176.213 1.771l1.77-.163Zm-.553-3.724a33.646 33.646 0 0 0-.432-1.833l-1.718.456c.152.573.288 1.151.409 1.736l1.741-.359Zm-.967-3.64a33.589 33.589 0 0 0-.635-1.775l-1.656.646a32.2 32.2 0 0 1 .601 1.68l1.69-.552Zm-1.369-3.51a33.764 33.764 0 0 0-.83-1.692l-1.573.828c.276.526.538 1.06.786 1.602l1.617-.738Zm-1.752-3.334a33.817 33.817 0 0 0-1.013-1.587l-1.472.997c.333.492.653.993.96 1.504l1.525-.914Zm-2.113-3.117c-.381-.5-.776-.988-1.183-1.466l-1.352 1.155c.386.452.76.915 1.12 1.389l1.415-1.078Zm-2.446-2.863c-.433-.455-.88-.897-1.338-1.326l-1.216 1.297c.435.407.857.826 1.268 1.256l1.286-1.227Zm-2.747-2.576a33.941 33.941 0 0 0-1.477-1.17l-1.064 1.424c.477.357.943.727 1.399 1.109l1.142-1.363Zm-3.016-2.255a33.825 33.825 0 0 0-1.597-.998l-.9 1.533a31.98 31.98 0 0 1 1.513.946l.984-1.481Zm-3.248-1.906a33.614 33.614 0 0 0-1.698-.814L69 22.307c.545.242 1.081.5 1.61.77l.812-1.58Zm-3.44-1.532a33.473 33.473 0 0 0-1.78-.619l-.537 1.695c.569.18 1.13.376 1.686.586l.63-1.662Zm-3.593-1.137a33.657 33.657 0 0 0-1.837-.415l-.343 1.744c.586.116 1.166.247 1.74.394l.44-1.723Zm-3.694-.726a33.765 33.765 0 0 0-1.872-.208l-.147 1.772c.596.05 1.188.115 1.774.196l.245-1.76Zm-3.752-.311a34.434 34.434 0 0 0-.944-.013v1.777c.3 0 .598.005.895.013l.049-1.777ZM56 17.778c-.316 0-.63.004-.944.013l.049 1.777c.297-.008.596-.013.895-.013v-1.777Zm-2.824.116a33.78 33.78 0 0 0-1.872.208l.245 1.76a32.086 32.086 0 0 1 1.774-.196l-.147-1.772Zm-3.73.52c-.618.12-1.23.26-1.836.414l.44 1.723a31.806 31.806 0 0 1 1.74-.393l-.343-1.745Zm-3.648.932c-.601.19-1.195.397-1.78.619l.63 1.662c.555-.21 1.117-.406 1.686-.586l-.536-1.695Zm-3.523 1.337c-.575.256-1.141.527-1.698.814l.812 1.58a31.81 31.81 0 0 1 1.61-.77l-.724-1.624Zm-3.349 1.722c-.542.318-1.075.65-1.597.998l.984 1.48c.495-.328 1-.644 1.513-.945l-.9-1.533Zm-3.136 2.084c-.504.376-.996.766-1.477 1.17l1.142 1.362c.456-.382.922-.752 1.4-1.109L35.79 24.49Zm-2.886 2.419c-.459.43-.905.871-1.338 1.326l1.286 1.227c.41-.43.833-.85 1.268-1.256l-1.216-1.297Zm-2.6 2.723c-.408.478-.803.966-1.184 1.466l1.414 1.078c.361-.474.735-.937 1.121-1.39l-1.352-1.154Zm-2.284 2.995c-.351.52-.69 1.05-1.012 1.588l1.524.914c.307-.51.627-1.012.96-1.504l-1.472-.998Zm-1.935 3.23a33.722 33.722 0 0 0-.83 1.692l1.617.738c.248-.542.51-1.077.786-1.602l-1.573-.828Zm-1.564 3.427c-.228.584-.44 1.175-.635 1.774l1.69.552a32.2 32.2 0 0 1 .601-1.68l-1.656-.646Zm-1.17 3.582c-.16.604-.305 1.216-.432 1.833l1.741.36c.12-.586.257-1.164.41-1.737l-1.719-.456Zm-.76 3.688a33.786 33.786 0 0 0-.225 1.87l1.77.162a32.18 32.18 0 0 1 .213-1.771l-1.759-.261Zm-.346 3.748c-.011.314-.018.628-.021.944l1.777.016c.003-.3.01-.598.02-.895l-1.776-.065Zm.867.952v1.778h1.762l.016-1.762-1.777-.016Zm65.776 0-1.778.016.016 1.762h1.761v-1.778Zm-65.776-1.778h-.54v3.556h.54v-3.556Zm-1.622 0h-.542v3.556h.541v-3.556Zm-.542 0c-.332 0-.662.008-.99.022l.152 3.552c.278-.012.557-.018.838-.018v-3.556Zm-2.966.192c-.66.086-1.311.2-1.953.343l.767 3.471c.54-.119 1.09-.215 1.646-.288l-.46-3.526Zm-3.869.855c-.634.2-1.256.426-1.864.678l1.362 3.285a18.99 18.99 0 0 1 1.57-.572l-1.068-3.391Zm-3.662 1.518c-.587.307-1.16.638-1.716.993l1.913 2.997c.47-.3.952-.58 1.448-.837L10.45 52.04Zm-3.339 2.131c-.524.404-1.03.829-1.518 1.275l2.403 2.621a19.1 19.1 0 0 1 1.282-1.076l-2.167-2.82Zm-2.919 2.677a22.83 22.83 0 0 0-1.275 1.517l2.82 2.167c.34-.443.699-.87 1.076-1.282l-2.62-2.402Zm-2.413 3.14a22.709 22.709 0 0 0-.993 1.716l3.152 1.645c.259-.496.538-.979.838-1.448L1.78 59.988Zm-1.833 3.514c-.252.608-.479 1.23-.678 1.864l3.39 1.069c.17-.535.36-1.059.573-1.571l-3.285-1.362Zm-1.19 3.78a22.65 22.65 0 0 0-.343 1.954l3.526.46c.073-.558.17-1.107.288-1.647l-3.472-.767Zm-.514 3.929c-.014.328-.02.659-.02.99h3.555c0-.28.006-.56.018-.838l-3.553-.152Zm-.02.99c0 .333.006.663.02.992l3.553-.153a19.522 19.522 0 0 1-.018-.838h-3.556Zm.191 2.967c.086.66.2 1.311.342 1.953l3.472-.767c-.119-.54-.215-1.09-.288-1.646l-3.526.46Zm.855 3.869c.2.634.426 1.256.678 1.864l3.285-1.362a19.02 19.02 0 0 1-.572-1.57l-3.391 1.068Zm1.518 3.662c.306.587.638 1.16.993 1.716l2.997-1.913c-.3-.47-.58-.952-.838-1.448L.787 82.7Zm2.131 3.339c.403.524.829 1.03 1.275 1.517l2.62-2.402a19.273 19.273 0 0 1-1.075-1.282l-2.82 2.167Zm2.676 2.919c.487.446.994.872 1.518 1.275l2.167-2.82c-.443-.34-.87-.699-1.282-1.076l-2.403 2.62Zm3.141 2.413c.556.355 1.129.686 1.716.993l1.645-3.152a19.131 19.131 0 0 1-1.448-.838L8.735 91.37Zm3.514 1.833c.608.252 1.23.479 1.864.678l1.068-3.39a19.015 19.015 0 0 1-1.57-.573l-1.362 3.285Zm3.78 1.19a22.65 22.65 0 0 0 1.953.343l.46-3.526a19.095 19.095 0 0 1-1.646-.288l-.767 3.472Zm3.928.513c.33.015.66.022.991.022v-3.556c-.28 0-.56-.006-.838-.018l-.152 3.552Zm.991.022h.877v-3.556h-.877v3.556Zm2.63 0h1.752v-3.556h-1.753v3.556Zm3.505 0h1.752v-3.556h-1.753v3.556Zm3.505 0h1.752v-3.556h-1.752v3.556Zm3.505 0h1.752v-3.556h-1.752v3.556Zm3.505 0h1.752v-3.556h-1.752v3.556Zm3.505 0h1.753v-3.556h-1.753v3.556Zm3.505 0h1.753v-3.556h-1.753v3.556Zm3.505 0h1.753v-3.556h-1.753v3.556Zm3.506 0h1.752v-3.556H51.62v3.556Zm3.505 0h1.752v-3.556h-1.752v3.556Zm3.505 0h1.752v-3.556H58.63v3.556Zm3.505 0h1.753v-3.556h-1.753v3.556Zm3.505 0h1.753v-3.556h-1.753v3.556Zm3.505 0h1.753v-3.556h-1.753v3.556Zm3.505 0h1.753v-3.556H72.65v3.556Zm3.506 0h1.752v-3.556h-1.752v3.556Zm3.505 0h1.752v-3.556H79.66v3.556Zm3.505 0h1.752v-3.556h-1.752v3.556Zm3.505 0h1.753v-3.556H86.67v3.556Zm3.505 0h.877v-3.556h-.877v3.556Zm.877 0c.331 0 .662-.007.99-.022l-.152-3.552c-.278.012-.557.018-.838.018v3.556Zm2.966-.192a22.5 22.5 0 0 0 1.953-.342l-.767-3.472c-.54.119-1.09.216-1.646.288l.46 3.526Zm3.869-.855c.634-.2 1.256-.426 1.864-.678l-1.362-3.285c-.512.213-1.036.404-1.57.572l1.068 3.391Zm3.662-1.518c.587-.306 1.16-.638 1.716-.993l-1.913-2.997c-.469.3-.952.58-1.448.838l1.645 3.152Zm3.339-2.131a23.009 23.009 0 0 0 1.518-1.275l-2.403-2.62c-.411.376-.839.735-1.282 1.075l2.167 2.82Zm2.919-2.677c.446-.486.872-.993 1.275-1.517l-2.82-2.167c-.34.443-.699.87-1.076 1.282l2.621 2.402Zm2.413-3.14c.355-.556.687-1.129.993-1.716l-3.152-1.645c-.259.496-.538.979-.838 1.448l2.997 1.913Zm1.833-3.514c.252-.608.479-1.23.678-1.864l-3.391-1.068a18.812 18.812 0 0 1-.572 1.57l3.285 1.362Zm1.191-3.78c.141-.642.256-1.293.342-1.953l-3.526-.46a19.36 19.36 0 0 1-.288 1.646l3.472.767Zm.513-3.928c.014-.33.021-.66.021-.991h-3.556c0 .28-.006.56-.018.838l3.553.152Zm.021-.991c0-.332-.007-.663-.021-.991l-3.553.152c.012.278.018.558.018.839h3.556Zm-.192-2.966a22.844 22.844 0 0 0-.342-1.954l-3.472.767c.119.54.215 1.09.288 1.646l3.526-.46Zm-.855-3.87a22.427 22.427 0 0 0-.678-1.864l-3.285 1.362a18.8 18.8 0 0 1 .572 1.57l3.391-1.068Zm-1.518-3.662a22.495 22.495 0 0 0-.993-1.716l-2.997 1.913c.3.47.579.952.838 1.448l3.152-1.645Zm-2.131-3.339a22.916 22.916 0 0 0-1.275-1.517l-2.621 2.402a19.1 19.1 0 0 1 1.076 1.282l2.82-2.167Zm-2.676-2.919a23.04 23.04 0 0 0-1.518-1.275l-2.167 2.82c.443.34.871.7 1.282 1.076l2.403-2.62Zm-3.141-2.413a22.831 22.831 0 0 0-1.716-.993l-1.645 3.153c.496.258.979.538 1.448.837l1.913-2.997ZM99.751 51.2a22.353 22.353 0 0 0-1.864-.678l-1.068 3.391c.534.168 1.058.36 1.57.572l1.362-3.285Zm-3.78-1.19a22.65 22.65 0 0 0-1.953-.343l-.46 3.526c.557.073 1.106.17 1.646.288l.767-3.471Zm-3.928-.513a23.115 23.115 0 0 0-.991-.022v3.556c.28 0 .56.006.838.018l.153-3.552Zm-.991-.022h-.542v3.556h.542v-3.556Zm-1.624 0h-.54v3.556h.54v-3.556Zm1.237 1.762c-.003-.324-.01-.646-.022-.968l-3.553.13c.01.289.017.579.02.87l3.555-.032Zm-.146-2.896a34.782 34.782 0 0 0-.23-1.92l-3.517.523a31.2 31.2 0 0 1 .207 1.723l3.54-.326Zm-.567-3.823a34.43 34.43 0 0 0-.444-1.881l-3.436.912c.147.557.28 1.12.397 1.688l3.483-.719Zm-.993-3.737c-.2-.614-.418-1.222-.652-1.82l-3.312 1.291c.21.538.404 1.082.584 1.633l3.38-1.104Zm-1.405-3.602a34.472 34.472 0 0 0-.852-1.736l-3.147 1.655c.269.51.524 1.03.764 1.557l3.235-1.476Zm-1.8-3.422a34.818 34.818 0 0 0-1.039-1.63l-2.943 1.996c.324.478.635.966.933 1.462l3.05-1.828Zm-2.167-3.199a34.843 34.843 0 0 0-1.214-1.504l-2.704 2.31c.375.439.739.89 1.09 1.35l2.828-2.156Zm-2.51-2.938c-.445-.466-.903-.92-1.373-1.36l-2.431 2.593c.422.396.833.804 1.233 1.222l2.571-2.455Zm-2.819-2.643a34.883 34.883 0 0 0-1.515-1.2l-2.13 2.847c.464.347.918.706 1.36 1.078l2.285-2.725Zm-3.095-2.314a34.644 34.644 0 0 0-1.64-1.025l-1.799 3.066c.5.294.99.6 1.471.92l1.968-2.961Zm-3.333-1.957a34.497 34.497 0 0 0-1.744-.835l-1.446 3.248c.53.236 1.05.486 1.564.75l1.626-3.163Zm-3.532-1.572c-.602-.228-1.21-.44-1.827-.635l-1.073 3.39c.553.175 1.1.364 1.638.57l1.262-3.325Zm-3.688-1.167a34.537 34.537 0 0 0-1.885-.426l-.686 3.489c.57.112 1.133.24 1.69.382l.881-3.445Zm-3.792-.746a34.76 34.76 0 0 0-1.92-.213l-.294 3.544c.58.048 1.154.112 1.724.19l.49-3.52Zm-3.85-.319A35.416 35.416 0 0 0 56 16.89v3.555c.291 0 .581.004.87.012l.098-3.554ZM56 16.89c-.324 0-.647.004-.968.013l.097 3.554c.29-.008.58-.012.871-.012V16.89Zm-2.897.12a34.76 34.76 0 0 0-1.921.212l.49 3.522a31.28 31.28 0 0 1 1.724-.191l-.293-3.544Zm-3.828.532c-.634.125-1.263.267-1.885.426l.88 3.445c.558-.143 1.122-.27 1.691-.382l-.686-3.49Zm-3.746.958c-.616.195-1.226.407-1.827.635l1.262 3.324a32.302 32.302 0 0 1 1.638-.57l-1.073-3.39Zm-3.615 1.372c-.59.262-1.172.541-1.744.835l1.626 3.162a31.015 31.015 0 0 1 1.564-.75l-1.446-3.247Zm-3.438 1.767c-.556.327-1.103.668-1.64 1.025l1.969 2.961c.48-.32.971-.626 1.47-.92l-1.799-3.066Zm-3.219 2.139c-.516.386-1.021.786-1.515 1.2l2.284 2.725c.443-.372.897-.731 1.36-1.078l-2.129-2.847Zm-2.961 2.482c-.47.441-.928.895-1.373 1.36l2.572 2.456c.4-.418.81-.826 1.232-1.222l-2.431-2.594Zm-2.669 2.795c-.418.49-.823.992-1.214 1.504l2.828 2.156c.351-.46.715-.911 1.09-1.35l-2.704-2.31Zm-2.342 3.074a34.686 34.686 0 0 0-1.04 1.63l3.05 1.827c.297-.496.609-.984.933-1.462l-2.943-1.995Zm-1.987 3.315c-.3.57-.584 1.148-.852 1.736l3.235 1.476c.24-.527.495-1.047.764-1.557l-3.147-1.655Zm-1.605 3.517c-.234.6-.451 1.206-.652 1.821l3.38 1.105c.18-.552.375-1.096.584-1.634l-3.312-1.292Zm-1.201 3.677a34.43 34.43 0 0 0-.444 1.881l3.483.719c.117-.569.25-1.131.397-1.688l-3.436-.912Zm-.78 3.785a34.782 34.782 0 0 0-.232 1.919l3.541.326a31.2 31.2 0 0 1 .207-1.723l-3.517-.522Zm-.355 3.847c-.012.322-.02.644-.022.968l3.555.032c.003-.291.01-.581.02-.87l-3.553-.13Z" fill="#ffffff66"></path>
        </g>
        <g clip-path="url(#27f88__b)">
            <mask height="28" width="16" y="48" x="48" maskUnits="userSpaceOnUse" id="27f88__c" style="mask-type: alpha;">
                <path fill="#C4C4C4" transform="matrix(0 -1 -1 0 64 75.555)" d="M0 0h26.667v16H0z"></path>
            </mask>
            <g mask="url(#27f88__c)" stroke-width="3.556">
                <path stroke="#00C1CD" d="m41.9 64.962 14.15-10.776 14.148 10.776"></path>
                <path stroke="url(#27f88__d)" transform="matrix(0 1 1 0 57.778 53.333)" d="M0-1.778h21.333"></path>
            </g>
        </g>
        <defs>
            <linearGradient gradientUnits="userSpaceOnUse" y2="-.5" x2="21.333" y1="-.5" x1="1.333" id="27f88__d">
                <stop stop-color="#00C1CD"></stop>
                <stop stop-opacity="0" stop-color="#00C1CD" offset="1"></stop>
            </linearGradient>
            <clipPath id="27f88__b">
                <rect fill="#fff" transform="rotate(90 66.666 51.556)" rx="10.667" height="21.333" width="24" y="51.556" x="66.666"></rect>
            </clipPath>
        </defs>
    </g>
</svg>